<?xml version="1.0" encoding="utf-8"?>
<!-- Generator: Adobe Illustrator 23.0.0, SVG Export Plug-In . SVG Version: 6.00 Build 0)  -->
<svg version="1.1" id="레이어_1" xmlns="http://www.w3.org/2000/svg" xmlns:xlink="http://www.w3.org/1999/xlink" x="0px"
	 y="0px" viewBox="0 0 28.5 27.3" style="enable-background:new 0 0 28.5 27.3;" xml:space="preserve">
<style type="text/css">
	.st0{fill:#b2d8b5;}
</style>
<path id="패스_13803" class="st0" d="M14.3,22.8l6.9,4.2c0.8,0.5,1.8,0.2,2.3-0.6c0.2-0.4,0.3-0.8,0.2-1.2l-1.8-7.9l6.1-5.3
	c0.7-0.6,0.8-1.6,0.2-2.3c-0.3-0.3-0.7-0.5-1.1-0.6l-8.1-0.7L15.8,1c-0.4-0.8-1.3-1.2-2.2-0.9c-0.4,0.2-0.7,0.5-0.9,0.9L9.6,8.4
	L1.5,9.1C0.6,9.2-0.1,10,0,10.9c0,0.4,0.2,0.8,0.6,1.1l6.1,5.3l-1.8,7.9c-0.2,0.9,0.3,1.8,1.2,2c0.4,0.1,0.9,0,1.2-0.2L14.3,22.8z"
	/>
</svg>
